<svg width="139" height="139" viewBox="0 0 139 139" fill="none" xmlns="http://www.w3.org/2000/svg">
<rect width="139" height="139" rx="8" fill="#E8F4F7"/>
<path d="M64.5534 97.1293H49.1313C47.5878 97.1293 46.1076 96.5161 45.0162 95.4247C43.9248 94.3333 43.3116 92.8531 43.3116 91.3096V50.5721C43.3116 49.0286 43.9248 47.5484 45.0162 46.457C46.1076 45.3656 47.5878 44.7524 49.1313 44.7524H89.8688C91.4123 44.7524 92.8925 45.3656 93.9839 46.457C95.0753 47.5484 95.6885 49.0286 95.6885 50.5721V79.6703L86.668 70.6499C85.573 69.5767 84.0987 68.9789 82.5655 68.9866C81.0323 68.9942 79.564 69.6066 78.4798 70.6906L52.0411 97.1293M75.3197 92.7645L84.0492 84.0351M84.0492 84.0351L92.7786 92.7645M84.0492 84.0351V100.039M66.5902 62.2114C66.5902 65.4255 63.9847 68.031 60.7706 68.031C57.5565 68.031 54.9509 65.4255 54.9509 62.2114C54.9509 58.9973 57.5565 56.3917 60.7706 56.3917C63.9847 56.3917 66.5902 58.9973 66.5902 62.2114Z" stroke="#0088B1" stroke-width="2" stroke-linecap="round" stroke-linejoin="round"/>
</svg>
